<svg width="32" height="32" viewBox="0 0 32 32" xmlns="http://www.w3.org/2000/svg"><g fill="none" fill-rule="evenodd"><path d="M0 0h32v32H0z"/><g fill="#000" fill-rule="nonzero"><path d="M27.84 29.06H3.85a.51.51 0 01-.5-.51V11.67c0-.27.24-.5.5-.5.27 0 .5.23.5.5v16.37h23v-16.4c0-.27.22-.5.49-.5.26 0 .49.23.49.5v16.88c0 .3-.23.54-.5.54z"/><path d="M15.83 20.58c-.1 0-.2-.03-.27-.1l-12-8.4a.5.5 0 01-.14-.71c.17-.24.47-.3.7-.14l12 8.44c.23.17.3.47.14.71-.1.14-.27.2-.43.2z"/><path d="M15.83 20.58c-.17 0-.3-.06-.4-.23a.5.5 0 01.13-.71l12.01-8.44c.23-.17.53-.1.7.13a.5.5 0 01-.14.71l-12 8.48c-.1.06-.2.06-.3.06z"/><path d="M27.84 12.14c-.1 0-.2-.03-.27-.1l-12-8.4a.5.5 0 01-.14-.71c.17-.24.46-.3.7-.14l12 8.44c.23.17.3.48.13.71-.13.14-.26.2-.42.2z"/><path d="M3.85 12.14c-.16 0-.3-.06-.4-.23a.5.5 0 01.14-.71l12-8.44c.24-.17.53-.1.7.14a.5.5 0 01-.13.7L4.12 12.08a.6.6 0 01-.27.06zM27.84 29.06a.51.51 0 01-.4-.2l-8.35-10.8a.53.53 0 01.06-.72.5.5 0 01.7.07l8.35 10.8c.16.2.13.54-.07.71-.06.1-.2.14-.3.14zM3.85 29.06c-.1 0-.23-.04-.3-.1a.53.53 0 01-.06-.71l8.52-10.87a.5.5 0 01.7-.07c.19.17.22.5.06.7L4.2 28.86c-.06.14-.23.2-.36.2zM21.85 16.36a.51.51 0 01-.5-.5v-3.78H10.28v3.74c0 .27-.23.51-.5.51a.51.51 0 01-.49-.5v-4.26c0-.27.23-.5.5-.5h12.07c.26 0 .5.23.5.5v4.29c0 .3-.24.5-.5.5z"/></g></g></svg>