<svg viewBox="0 0 20 20" xmlns="http://www.w3.org/2000/svg"><g fill="none" fill-rule="evenodd"><path d="M-2-2h24v24H-2z"/><g transform="translate(.5)" fill="#000" fill-rule="nonzero"><path d="M16.95 17.58h-15a.4.4 0 01-.4-.4V.4c0-.22.18-.4.4-.4h15a.4.4 0 01.39.4v16.79a.4.4 0 01-.4.4zM2.2 16.92H16.7V.66H2.2v16.26z"/><path d="M16.95 17.58h-15a.4.4 0 01-.4-.4V3.39c0-.22.18-.4.4-.4h15a.4.4 0 01.39.4v13.8a.4.4 0 01-.4.4zM2.2 16.92H16.7V3.65H2.2v13.27z"/><path d="M1.36 9.4C.6 9.4 0 8.8 0 8.03V6.48C0 5.71.6 5.1 1.36 5.1c.17 0 .32.15.32.33 0 .17-.15.33-.32.33a.73.73 0 00-.71.72v1.54c0 .4.32.73.71.73.17 0 .32.15.32.33 0 .17-.15.33-.32.33zM17.47 9.4a.34.34 0 01-.33-.32c0-.18.15-.33.33-.33.39 0 .71-.33.71-.73V6.48c0-.4-.32-.72-.71-.72a.34.34 0 01-.33-.33c0-.18.15-.33.33-.33.75 0 1.36.61 1.36 1.38v1.54c0 .77-.63 1.39-1.36 1.39zM15.52 19.8h-2.74a.41.41 0 01-.4-.42v-2.06c0-.18.14-.33.32-.33h2.91c.17 0 .32.15.32.33v2.06c0 .25-.19.42-.4.42zm-2.5-.66h2.27v-1.51h-2.27v1.51zM6.07 19.8H3.32a.41.41 0 01-.4-.42v-2.06c0-.18.15-.33.32-.33h2.91c.18 0 .33.15.33.33v2.06c0 .25-.2.42-.41.42zm-2.5-.66h2.26v-1.51H3.56v1.51zM17.01 10.95H1.88a.34.34 0 01-.33-.33c0-.18.16-.33.33-.33H17c.18 0 .33.15.33.33 0 .17-.13.33-.33.33z"/><ellipse cx="4.69" cy="13.56" rx="1.14" ry="1.16"/><ellipse cx="14.16" cy="13.56" rx="1.14" ry="1.16"/></g></g></svg>