<svg width="32" height="32" viewBox="0 0 32 32" xmlns="http://www.w3.org/2000/svg"><g fill="none" fill-rule="evenodd"><path d="M0 0h32v32H0z"/><path d="M19.5 29.33h-.06a265.65 265.65 0 01-.9-.13c-1.3-.43-2.01-1.29-2.77-2.19l-.27-.3A45.82 45.82 0 017.88 14l-.16-.37C7 11.88 6.08 9.7 6 7.6v-.08l.02-.15.03-.1c1.08-2.88 3.34-4.43 6.7-4.6h.1l.4.05c.14.02.27.1.35.23a19.34 19.34 0 012.32 6.31c.03.15-.02.3-.13.41-.8.8-1.84 1.32-3.12 1.55l.05.08.75 1.36c1.6 2.91 3.26 5.92 4.91 8.76a7.18 7.18 0 012.8-1.65.49.49 0 01.47.08 17.24 17.24 0 014.3 5.36c.04.08.06.18.05.28l-.02.1c0 .06-.03.12-.06.17-1.36 2.25-3.5 3.45-6.4 3.57h-.02zm-.68-1.02l.7.09c2.5-.11 4.28-1.08 5.48-2.95-1.12-2-2.32-3.51-3.74-4.7a5.2 5.2 0 00-2.54 1.76.5.5 0 01-.42.2.48.48 0 01-.4-.23c-1.78-3.03-3.55-6.26-5.27-9.38l-.75-1.36-.07-.1c-.13-.2-.34-.52-.23-.92a.47.47 0 01.4-.34 5.18 5.18 0 002.95-1.2 18.44 18.44 0 00-2.04-5.56l-.12-.02c-2.96.16-4.86 1.46-5.8 3.95l-.01.05c.08 1.92.95 4.01 1.65 5.7l.15.36a44.94 44.94 0 007.48 12.45l.26.31c.7.82 1.3 1.53 2.32 1.89z" fill="#000" fill-rule="nonzero"/></g></svg>