<svg viewBox="0 0 26 28" xmlns="http://www.w3.org/2000/svg"><g fill="none" fill-rule="evenodd"><path d="M-3-2h32v32H-3z"/><g transform="translate(.33 .67)" fill="#000" fill-rule="nonzero"><path d="M22.6 23.44h-20a.52.52 0 01-.53-.52V.52c0-.29.23-.52.52-.52h20c.3 0 .53.23.53.53v22.39c0 .29-.23.52-.52.52zm-19.66-.88h19.31V.88H2.94v21.68z"/><path d="M22.6 23.44h-20a.52.52 0 01-.53-.52V4.52c0-.3.23-.53.52-.53h20c.3 0 .53.23.53.52v18.4c0 .3-.23.53-.52.53zm-19.66-.88h19.31V4.86H2.94v17.7z"/><path d="M1.81 12.54c-1 0-1.81-.82-1.81-1.84V8.64C0 7.62.8 6.8 1.81 6.8c.23 0 .44.2.44.44 0 .23-.2.44-.44.44a.97.97 0 00-.95.96v2.06c0 .52.44.96.95.96.23 0 .44.2.44.44s-.2.44-.44.44zM23.29 12.54a.45.45 0 01-.43-.44c0-.23.2-.44.43-.44.52 0 .95-.44.95-.96V8.64a.97.97 0 00-.95-.96.45.45 0 01-.43-.44c0-.24.2-.44.43-.44 1 0 1.81.82 1.81 1.84v2.06c0 1.02-.83 1.84-1.81 1.84zM20.7 26.4h-3.66a.55.55 0 01-.54-.55v-2.76c0-.23.2-.44.43-.44h3.88c.23 0 .44.2.44.44v2.76c0 .32-.26.55-.55.55zm-3.34-.88h3.02V23.5h-3.02v2.02zM8.09 26.4H4.43a.55.55 0 01-.54-.55v-2.76c0-.23.2-.44.43-.44H8.2c.23 0 .44.2.44.44v2.76c0 .32-.26.55-.55.55zm-3.34-.88h3.02V23.5H4.75v2.02zM22.68 14.6H2.5a.45.45 0 01-.43-.45c0-.23.2-.44.43-.44h20.18c.24 0 .44.2.44.44s-.18.44-.44.44z"/><ellipse cx="6.25" cy="18.08" rx="1.53" ry="1.55"/><ellipse cx="18.88" cy="18.08" rx="1.53" ry="1.55"/></g></g></svg>