<svg viewBox="0 0 20 28" xmlns="http://www.w3.org/2000/svg"><g fill="none" fill-rule="evenodd"><path d="M-6-2h32v32H-6z"/><g fill="#000" fill-rule="nonzero"><path d="M10 27.22a.47.47 0 01-.36-.17C9.25 26.58.13 15.59.13 10.45.13 5.17 4.56.87 10.01.87c5.44 0 9.87 4.3 9.87 9.58 0 5.14-9.12 16.13-9.51 16.6a.47.47 0 01-.36.17zm0-25.44c-4.92 0-8.93 3.9-8.93 8.67 0 4.27 7.21 13.45 8.94 15.58 1.72-2.13 8.93-11.31 8.93-15.58 0-4.78-4-8.67-8.93-8.67z"/><path d="M10 13.18a4 4 0 01-4.05-3.93 4 4 0 014.06-3.94 4 4 0 014.05 3.94 4 4 0 01-4.05 3.93zm0-6.96A3.08 3.08 0 006.9 9.25c0 1.66 1.4 3.02 3.12 3.02a3.08 3.08 0 003.11-3.02c0-1.67-1.4-3.03-3.11-3.03z"/></g></g></svg>