<svg viewBox="0 0 20 20" xmlns="http://www.w3.org/2000/svg"><g fill="none" fill-rule="evenodd"><path d="M-2-2h24v24H-2z"/><g fill="#000" fill-rule="nonzero"><path d="M18.88 19.8h-18a.38.38 0 01-.36-.39V6.75c0-.2.17-.38.37-.38.2 0 .37.18.37.38v12.28H18.5V6.73c0-.2.17-.38.37-.38.2 0 .37.18.37.38v12.66c0 .22-.17.4-.37.4z"/><path d="M9.87 13.44a.28.28 0 01-.2-.08l-9-6.3a.38.38 0 01-.1-.53c.12-.18.34-.23.52-.1l9 6.32c.18.13.23.36.1.54a.4.4 0 01-.32.15z"/><path d="M9.87 13.44c-.12 0-.22-.05-.3-.18a.38.38 0 01.1-.53l9.01-6.33c.17-.13.4-.08.52.1s.07.4-.1.53l-9 6.36c-.08.05-.15.05-.23.05z"/><path d="M18.88 7.1a.28.28 0 01-.2-.07l-9-6.3a.38.38 0 01-.1-.53c.12-.18.34-.23.51-.1l9.01 6.32c.17.13.22.36.1.54-.1.1-.2.15-.32.15z"/><path d="M.89 7.1c-.12 0-.22-.04-.3-.17a.38.38 0 01.1-.53l9-6.33c.18-.13.4-.08.53.1.12.18.07.4-.1.53L1.09 7.06a.46.46 0 01-.2.05zM18.88 19.8a.38.38 0 01-.3-.16l-6.27-8.1a.4.4 0 01.05-.53c.15-.13.4-.1.52.05l6.27 8.1c.12.15.1.4-.05.53-.05.08-.15.1-.22.1zM.89 19.8c-.07 0-.17-.03-.22-.08a.4.4 0 01-.05-.54L7 11.03a.38.38 0 01.52-.05.4.4 0 01.05.53l-6.42 8.13c-.05.1-.17.15-.27.15zM14.39 10.27a.38.38 0 01-.37-.38V7.06H5.7v2.8c0 .21-.17.39-.37.39a.38.38 0 01-.37-.38v-3.2c0-.2.17-.37.37-.37h9.06c.2 0 .37.18.37.38v3.21c0 .23-.18.38-.37.38z"/></g></g></svg>