<svg width="32" height="32" viewBox="0 0 32 32" xmlns="http://www.w3.org/2000/svg"><g fill="none" fill-rule="evenodd"><path d="M0 0h32v32H0z"/><g fill="#000" fill-rule="nonzero"><path d="M16 29.22a.47.47 0 01-.36-.17c-.39-.47-9.51-11.46-9.51-16.6 0-5.28 4.43-9.58 9.88-9.58 5.44 0 9.87 4.3 9.87 9.58 0 5.14-9.12 16.13-9.51 16.6a.47.47 0 01-.36.17zm0-25.44c-4.92 0-8.93 3.9-8.93 8.67 0 4.27 7.22 13.45 8.94 15.58 1.72-2.13 8.93-11.31 8.93-15.58 0-4.78-4-8.67-8.93-8.67z"/><path d="M16 15.18a4 4 0 01-4.05-3.93 4 4 0 014.06-3.94 4 4 0 014.05 3.94 4 4 0 01-4.05 3.93zm0-6.96a3.08 3.08 0 00-3.11 3.03c0 1.66 1.4 3.02 3.12 3.02a3.08 3.08 0 003.11-3.02c0-1.67-1.4-3.03-3.11-3.03z"/></g></g></svg>