<svg viewBox="0 0 16 20" xmlns="http://www.w3.org/2000/svg"><g fill="none" fill-rule="evenodd"><path d="M-4-2h24v24H-4z"/><g fill="#000" fill-rule="nonzero"><path d="M8 19.91c-.1 0-.2-.04-.27-.12C7.44 19.44.6 11.19.6 7.34A7.3 7.3 0 018 .16a7.3 7.3 0 017.41 7.18c0 3.85-6.84 12.1-7.13 12.45a.36.36 0 01-.28.12zM8 .84c-3.7 0-6.7 2.91-6.7 6.5 0 3.2 5.41 10.09 6.7 11.68 1.3-1.6 6.7-8.48 6.7-11.68 0-3.59-3-6.5-6.7-6.5z"/><path d="M8 9.38a3 3 0 01-3.04-2.95A3 3 0 018 3.48a3 3 0 013.05 2.95A3 3 0 018 9.38zm0-5.21a2.3 2.3 0 00-2.33 2.26A2.3 2.3 0 008 8.7a2.3 2.3 0 002.34-2.27A2.3 2.3 0 008 4.17z"/></g></g></svg>