<svg viewBox="0 0 16 20" xmlns="http://www.w3.org/2000/svg"><g fill="none" fill-rule="evenodd"><path d="M-4-2h24v24H-4z"/><path d="M10.63 20h-.05a199.28 199.28 0 01-.67-.1 4.6 4.6 0 01-2.08-1.64l-.2-.23A34.36 34.36 0 011.9 8.5l-.12-.28C1.24 6.91.56 5.27.5 3.7v-.06l.02-.11c0-.02 0-.05.02-.07C1.34 1.29 3.04.13 5.57 0a.4.4 0 01.07 0l.3.04c.1.02.2.08.26.17a14.5 14.5 0 011.74 4.74.34.34 0 01-.1.3c-.6.6-1.38.99-2.33 1.16l.03.06.56 1.02c1.2 2.19 2.44 4.44 3.69 6.58a5.38 5.38 0 012.1-1.24.36.36 0 01.35.06c1.25 1 2.27 2.28 3.22 4.01.03.07.05.14.04.22l-.01.07c0 .04-.03.09-.05.13a5.5 5.5 0 01-4.8 2.68h-.01zm-.52-.77l.53.07c1.87-.08 3.21-.8 4.1-2.21a12.27 12.27 0 00-2.8-3.53 3.9 3.9 0 00-1.9 1.32.37.37 0 01-.31.16.36.36 0 01-.3-.18c-1.34-2.27-2.67-4.7-3.96-7.04l-.56-1.01-.05-.08c-.1-.15-.26-.4-.18-.7a.35.35 0 01.3-.25c.92-.1 1.66-.4 2.22-.89A13.83 13.83 0 005.67.71L5.57.7C3.36.82 1.94 1.8 1.22 3.66v.04c.06 1.44.71 3 1.23 4.27l.12.28a33.7 33.7 0 005.6 9.33l.2.24c.53.61.98 1.14 1.74 1.41z" fill="#000" fill-rule="nonzero"/></g></svg>