<svg viewBox="0 0 789 812" xmlns="http://www.w3.org/2000/svg" xmlns:xlink="http://www.w3.org/1999/xlink"><use xlink:href="#path0_fill" transform="translate(.5 .142)" fill="#FAF2E3" opacity=".6"/><defs><path id="path0_fill" d="M115.948 643.798C82.2669 614.007 37.1237 614.742 0 585.872c0 0 23.1385 78.547 23.139 83.084 2.0619 2.475 23.9241 23.096 34.6487 42.892 10.7246 19.797 55.2733 80.836 55.2733 80.836h71.36l190.156-56.915c15.025 28.731 26.158 52.55 54.094 75.248 60.295-2.037 88.941-8.37 135.649-24.107-6.463-27.044-14.01-46.446-33.412-87.434-15.282-25.671-57.484-71.33-55.273-85.373.599-5.315 1.809-7.662 4.95-11.135 31.445-25.293 57.619-55.274 67.648-80.836 16.241-62.307 12.097-90.596-24.337-123.315-2.192-6.743-2.608-10.813-.825-18.972 28.549-6.218 36.075-19.468 33.412-54.853-12.787-6.675-24.071-9.881-35.887-28.457 22.9-18.056 50.726-26.539 111.784-40.418 15.1-28.431 22.146-76.314 35.061-153.835 1.772-24.5299.938-31.8152 12.787-38.7683 4.898-2.874 20.045 2.1678 47.436 2.887 31.208.8194 44.598-12.4469 59.81-34.2314L599.793 0c5.875 16.3832 12.363 20.5596 21.037 32.1693 14.253 19.0754 14.546 26.1329 16.912 39.593-4.399 25.3308-12.128 42.7597-27.224 74.6487-24.176 39.656-30.986 51.805-33.411 58.978-26.398-8.107-37.417-10.43-54.036-12.786-33.494.324-51.149 5.049-55.273 4.949-34.236-.824-10.644 3.528-78.372 4.125-2.06.255-7.002-.982-7.837-5.362.825-7.424-7.012-21.446-7.012-27.632 31.06-18.054 33.855-21.79 34.648-27.221 1.238-11.96-4.003-32.65-5.775-40.417-4.545-5.6533-11.63-13.6584-18.561-31.7573-11.223-9.8635-10.335-11.5673-25.987-27.6326-6.541-5.736-21.563-11.7091-40.011-9.4858-17.232 3.5735-26.865 8.9635-43.311 24.7456-20.644 27.7676-31.916 48.6411-20.624 89.4961 11.999 28.926 29.563 31.735 48.26 33.407 4.125 3.712 5.775 5.774 7.425 9.898 2.628 13.662-2.495 26.655-15.674 32.17-15.75 2.891-24.875 4.636-50.736 11.96-5.159 2.435-19.842 27.573-25.986 27.22-24.444-1.405-38.039-1.638-61.873 0-2.598-13.677-13.54-33.719-42.074-81.248-14.261-24.57-22.2489-38.863-36.2985-73.824-5.6075-10.9532-4.1565-17.5049 4.1249-29.6951C115.468 50.1134 122.911 33.0327 124.198 0H23.9639v105.994c7.2294 3.518 10.5171 8.267 16.2391 16.533l.2603.376c24.309 61.12 35.6489 90.01 54.4481 138.163 15.4316 32.834 23.9456 46.05 38.7736 57.327 38.59 15.571 67.094 19.985 141.895 12.786 24.414 7.043 41.485 17.79 77.135 44.542 8.031 14.264 13.335 20.326 23.511 33.819-.048 44.91-4.753 61.054-16.499 70.937-50.688 1.6-67.248 12.359-84.147 42.068-11.295 29.359-11.92 49.105-9.075 86.609l-65.585 45.78-58.16 50.316s-4.416-17.151-8.662-27.633c-5.628-13.892-7.425-24.333-18.15-33.819z"/></defs></svg>