<svg viewBox="0 0 1062 1090" fill="none" xmlns="http://www.w3.org/2000/svg"><path d="M195.78 860.37C149.6 819.52 87.72 820.53 36.8 780.95 26 774.5 10.5 759.5 0 752v67.5c2.8 10.35 68.53 73.87 68.53 75.37 2.83 3.39 25.47 30.63 47.5 58.8 22.05 28.19 37.14 52.31 77.47 102.83 34.67 20.48 61.32 20.25 96.17 8.02l260.73-78.04c20.6 39.39 35.87 72.05 74.17 103.17H814.5c-1.3-37.32-13.62-97.05-49.75-152.94-20.95-35.2-78.82-97.8-75.79-117.05.82-7.3 2.48-10.51 6.79-15.27 43.12-34.68 79-75.79 92.75-110.84 22.27-85.43 16.6-124.22-33.37-169.08-3-9.25-3.57-14.83-1.13-26.01 39.15-8.53 49.47-26.7 45.82-75.21-17.54-9.16-33-13.55-49.2-39.02 31.39-24.76 69.54-36.4 153.26-55.42 20.7-38.98 30.37-104.64 48.08-210.93 2.42-33.63.72-37.56 14.04-50.88 4.5-4.5 9.5-12.5 44.5-19.5 41.98-8.4 48.5-44.5 51-46.5-17-2-12.26 23-54 28.5-21 4-28.5 4.5-30.5 4.5s-4.5-3 3.5-8.5c13-11 9.74-22.78 4-16-3.35-.14-39 33-43 34.5-15 13-18 11-24.5 32.03-7.84 34.37-22.4 58.63-43.1 102.36-33.14 54.37-42.48 71.03-45.8 80.86-36.2-11.11-51.3-14.3-74.1-17.53-45.92.45-70.13 6.92-75.78 6.79-46.95-1.13-14.6 4.84-107.46 5.65-2.83.35-9.6-1.34-10.75-7.35 1.13-10.18-9.61-29.4-9.61-37.89 42.59-24.75 46.42-29.87 47.5-37.32 1.7-16.4-5.48-44.77-7.91-55.42-6.23-7.75-15.95-18.72-25.45-43.54-15.39-13.52-14.17-15.86-35.63-37.89-8.97-7.86-29.57-16.05-54.86-13-23.63 4.9-36.84 12.29-59.39 33.93-28.3 38.07-43.76 66.69-28.28 122.7 16.46 39.67 40.54 43.52 66.18 45.81 5.65 5.1 7.91 7.92 10.18 13.57 3.6 18.74-3.43 36.55-21.5 44.11-21.6 3.97-34.1 6.36-69.56 16.4-7.08 3.34-27.2 37.8-35.63 37.32-33.52-1.92-52.16-2.24-84.84 0-3.56-18.75-34.09-54.92-73.21-120.09-19.56-33.69-48-84.53-50.5-92.53-5-13.5-9.5-20.47-13-23.47s-8-5.5-14.5-6c-19-4.5-31.38-21-35.5-21-18 0 21.5 30 7 27C21.5 91 28.57 98.55 5 84c-14-3 5 16 14 21 22.58 12.54 32.5 11.5 50 17.97 10.06 4.9 20.93 2.38 29 14.03 33.33 83.8 43.16 132.57 68.94 198.6 21.16 45.01 32.83 63.13 53.16 78.6 52.92 21.35 92 27.4 194.56 17.53 33.48 9.65 56.88 24.4 105.76 61.07 11.01 19.56 18.29 27.87 32.24 46.37-.06 61.58-6.52 83.72-22.62 97.27-69.5 2.19-92.2 16.94-115.38 57.68-15.49 40.25-16.34 67.33-12.44 118.75l-89.93 62.77-79.74 68.99s-6.06-23.52-11.88-37.89c-7.72-19.05-10.18-33.36-24.88-46.37z" fill="#FAF2E3" opacity=".6"/></svg>