<svg viewBox="0 0 160 176" fill="none" xmlns="http://www.w3.org/2000/svg"><mask id="a" mask-type="alpha" maskUnits="userSpaceOnUse" x="30" y="8" width="97" height="96"><rect x="30.04" y="8" width="96" height="96" rx="48" fill="#C4C4C4"/></mask><g mask="url(#a)"><path fill="#EDEBF0" d="M13.04 4h130v102h-130z"/><path d="M34.71 87.68c-3.7-3.27-8.65-3.18-12.73-6.35-.86-.51-2.1-1.71-2.94-2.31v5.4c.22.82 5.48 5.9 5.48 6.02.23.27 2.04 2.44 3.8 4.7 1.77 2.25 2.98 4.17 6.21 8.21 2.78 1.64 4.91 1.62 7.7.64l20.88-6.23c1.65 3.14 2.87 5.75 5.94 8.24h15.2a25.1 25.1 0 00-3.98-12.22c-1.67-2.81-6.3-7.82-6.06-9.35.06-.59.2-.84.54-1.22 3.45-2.78 6.33-6.06 7.43-8.86 1.78-6.83 1.32-9.93-2.68-13.51a3.33 3.33 0 01-.09-2.08c3.14-.68 3.96-2.13 3.67-6.01-1.4-.73-2.64-1.08-3.94-3.12 2.52-1.98 5.57-2.9 12.28-4.43 1.65-3.11 2.43-8.36 3.84-16.85.2-2.69.06-3 1.13-4.07.36-.36.76-1 3.56-1.56 3.36-.67 3.89-3.55 4.09-3.71-1.37-.16-.98 1.84-4.33 2.28-1.68.32-2.28.36-2.44.36-.16 0-.36-.24.28-.68 1.04-.88.78-1.82.32-1.28-.27-.01-3.12 2.64-3.44 2.76-1.2 1.03-1.44.87-1.96 2.55-.63 2.75-1.8 4.69-3.46 8.18-2.65 4.35-3.4 5.68-3.66 6.47-2.9-.9-4.11-1.15-5.94-1.4-3.67.03-5.61.55-6.06.54-3.76-.1-1.17.38-8.61.45-.23.03-.77-.1-.86-.59.09-.81-.77-2.35-.77-3.03 3.41-1.97 3.72-2.38 3.8-2.98.14-1.3-.44-3.58-.63-4.43-.5-.62-1.28-1.5-2.04-3.48-1.23-1.08-1.13-1.26-2.85-3.02a5.95 5.95 0 00-4.4-1.04c-1.89.39-2.94.98-4.75 2.7-2.27 3.05-3.5 5.34-2.26 9.81 1.31 3.17 3.24 3.48 5.3 3.66.45.41.63.64.81 1.09.29 1.5-.27 2.92-1.72 3.52-1.73.32-2.73.51-5.57 1.31-.57.27-2.18 3.02-2.85 2.99a46.2 46.2 0 00-6.8 0c-.28-1.5-2.73-4.4-5.86-9.6-1.57-2.7-3.84-6.76-4.04-7.4a4.75 4.75 0 00-1.04-1.87 1.94 1.94 0 00-1.17-.48c-1.52-.36-2.5-1.68-2.84-1.68-1.44 0 1.72 2.4.56 2.16-4-.68-3.44-.08-5.32-1.24-1.12-.24.4 1.28 1.12 1.68 1.8 1 2.6.92 4 1.44.8.39 1.68.19 2.32 1.12 2.67 6.7 3.46 10.59 5.52 15.87 1.7 3.6 2.63 5.04 4.26 6.28 4.24 1.7 7.37 2.19 15.58 1.4 2.68.77 4.56 1.95 8.47 4.88.88 1.56 1.46 2.22 2.58 3.7 0 4.92-.52 6.7-1.81 7.77-5.57.18-7.38 1.36-9.24 4.61-1.24 3.22-1.3 5.38-1 9.5l-7.2 5-6.38 5.52s-.49-1.88-.95-3.03c-.62-1.52-.82-2.66-2-3.7z" fill="#4E4361"/></g><path d="M6.35 160.96h4.2l-1.96-6.03-2.24 6.03zm6.67 3.5a.64.64 0 01-.56.28.87.87 0 01-.58-.18 1.62 1.62 0 01-.33-.65l-.72-2.13h-4.8l-.75 1.92c-.15.36-.3.63-.44.8a.67.67 0 01-.52.24c-.22 0-.39-.16-.52-.46.22-.09.39-.3.52-.63l3.88-9.76c-.1-.25-.2-.45-.35-.59.23-.14.43-.2.61-.2.3 0 .55.25.72.76l3.36 9.95c.1.33.27.55.48.66zM19.75 157.88c.08-.2.12-.42.12-.64 0-.23-.07-.4-.2-.55.2-.18.38-.27.56-.27.18 0 .33.06.44.2.12.12.18.28.18.49 0 .19-.05.42-.16.69l-2.45 6.04a2.5 2.5 0 01-.4.7c-.13.14-.3.2-.54.2a.73.73 0 01-.55-.2 2.13 2.13 0 01-.38-.7l-2.2-6.27c-.14-.3-.34-.45-.62-.45h-.04a.62.62 0 01.19-.5c.14-.14.3-.2.5-.2.44 0 .76.32.97.94l2.18 6.61 2.4-6.1zM28.04 157.97c0 .23-.09.4-.26.53a.85.85 0 01-.54.2.96.96 0 01-.52-.14c.07-.1.1-.26.1-.48 0-.2-.13-.41-.4-.6-.27-.2-.67-.3-1.22-.3-.54 0-.97.11-1.3.36-.3.24-.46.51-.46.83 0 .31.16.59.48.83.32.25.71.47 1.17.68.46.2.92.42 1.38.65.46.23.85.5 1.17.85.32.34.48.72.48 1.14 0 .58-.29 1.1-.85 1.55a3.4 3.4 0 01-2.18.67c-.88 0-1.6-.17-2.14-.51-.55-.34-.82-.8-.82-1.35 0-.32.08-.56.24-.73a.78.78 0 01.56-.26c.2 0 .37.07.5.2-.14.22-.21.44-.21.67 0 .37.15.67.46.9.31.22.77.33 1.36.33.61 0 1.1-.13 1.46-.39.36-.26.54-.58.54-.96s-.16-.7-.48-.96c-.3-.26-.69-.5-1.15-.68l-1.36-.58c-.45-.2-.83-.46-1.15-.77-.3-.3-.46-.66-.46-1.07 0-.63.26-1.15.78-1.55.52-.4 1.17-.61 1.94-.61s1.45.14 2.01.43c.58.28.87.65.87 1.12zM33.9 163.76c.7 0 1.3-.28 1.79-.84.49-.58.73-1.36.73-2.34 0-1-.24-1.78-.73-2.35a2.24 2.24 0 00-1.8-.87c-.99 0-1.73.46-2.24 1.38v3.8c.3.45.61.77.96.95.36.18.78.27 1.28.27zm-2.25-6.43v.24a2.7 2.7 0 012.3-1.15c.95 0 1.78.36 2.49 1.09.7.72 1.05 1.75 1.05 3.07 0 1.31-.35 2.33-1.07 3.06a3.37 3.37 0 01-2.5 1.08 2.8 2.8 0 01-2.27-1.02v3.84c0 .25.13.41.37.5-.17.3-.4.46-.67.46-.47 0-.7-.3-.7-.93v-10.19c0-.25-.13-.41-.37-.5.15-.3.37-.46.65-.46.48 0 .72.3.72.91zM44.09 154.3c0 .2-.09.39-.26.57a.78.78 0 01-.56.25.63.63 0 01-.46-.17.65.65 0 01-.18-.48c0-.2.09-.4.26-.56a.82.82 0 01.56-.26c.2 0 .36.06.46.18.12.11.18.27.18.48zm-2.2 0c0 .2-.1.39-.26.57a.78.78 0 01-.56.25.63.63 0 01-.47-.17.65.65 0 01-.17-.48c0-.2.08-.4.25-.56a.82.82 0 01.56-.26c.2 0 .36.06.47.18.11.11.17.27.17.48zm-1.6 8.31c0 .82.45 1.23 1.37 1.23.92 0 1.68-.4 2.29-1.21v-2a6.17 6.17 0 00-2.77.64c-.6.36-.9.8-.9 1.34zm4.68-3.7v4.42c0 .56.25.84.75.87-.14.36-.38.54-.72.54-.7 0-1.05-.45-1.05-1.36a2.9 2.9 0 01-2.53 1.36c-.64 0-1.18-.18-1.6-.54a1.87 1.87 0 01-.63-1.5c0-.78.4-1.42 1.17-1.9.78-.48 1.98-.74 3.59-.8v-.81c0-.75-.13-1.3-.39-1.63-.25-.36-.67-.53-1.25-.53-.57 0-1 .11-1.28.33-.27.23-.41.48-.41.76 0 .26.07.47.2.6-.18.12-.37.18-.57.18a.79.79 0 01-.53-.2c-.14-.12-.2-.3-.2-.54 0-.48.26-.89.8-1.23.53-.34 1.2-.51 2.01-.51.81 0 1.45.23 1.92.69.48.45.72 1.05.72 1.8zM54.37 159.14v4.66c0 .24.13.4.39.48-.17.3-.4.46-.7.46-.46 0-.7-.3-.7-.91v-4.67c0-1.2-.52-1.81-1.58-1.81-.58 0-1.13.23-1.65.7a3.64 3.64 0 00-1.07 1.81v3.94c0 .23.12.4.37.48-.17.3-.4.46-.67.46-.47 0-.7-.3-.7-.91v-6.45c0-.25-.13-.41-.38-.5.15-.3.37-.46.66-.46.48 0 .72.3.72.91v1.1c.28-.57.67-1.05 1.18-1.43a2.93 2.93 0 011.81-.58c.7 0 1.26.23 1.68.69.43.45.64 1.12.64 2.03zM63.7 159.14v4.66c0 .24.13.4.38.48-.17.3-.4.46-.68.46-.47 0-.7-.3-.7-.91v-4.67c0-1.2-.54-1.81-1.6-1.81-.57 0-1.12.23-1.64.7a3.64 3.64 0 00-1.07 1.81v3.94c0 .23.12.4.37.48-.17.3-.4.46-.68.46-.47 0-.7-.3-.7-.91v-6.45c0-.25-.12-.41-.37-.5.15-.3.37-.46.66-.46.48 0 .72.3.72.91v1.1c.28-.57.67-1.05 1.18-1.43a2.93 2.93 0 011.81-.58c.7 0 1.25.23 1.68.69.43.45.64 1.12.64 2.03zM67.24 153.16c.23 0 .42.06.57.2.15.13.23.31.23.55 0 .23-.1.44-.3.62a.93.93 0 01-.66.27.9.9 0 01-.61-.2.78.78 0 01-.23-.58c0-.25.11-.45.32-.6.22-.18.44-.26.68-.26zm.48 4.17v6.47c0 .23.12.4.36.48-.17.3-.4.46-.67.46-.47 0-.7-.3-.7-.91v-6.45c0-.25-.12-.41-.37-.5.15-.3.37-.46.66-.46.48 0 .72.3.72.91zM77.1 159.14v4.66c0 .24.12.4.37.48-.17.3-.4.46-.68.46-.47 0-.7-.3-.7-.91v-4.67c0-1.2-.54-1.81-1.6-1.81-.57 0-1.12.23-1.64.7a3.64 3.64 0 00-1.07 1.81v3.94c0 .23.12.4.37.48-.17.3-.4.46-.68.46-.46 0-.7-.3-.7-.91v-6.45c0-.25-.12-.41-.37-.5.15-.3.37-.46.66-.46.48 0 .72.3.72.91v1.1c.28-.57.67-1.05 1.18-1.43a2.93 2.93 0 011.81-.58c.7 0 1.25.23 1.68.69.43.45.64 1.12.64 2.03zM81.41 161.38c.42.46.9.69 1.44.69.54 0 1-.22 1.36-.66.36-.45.54-.98.54-1.61 0-.83-.22-1.48-.67-1.96-.43-.49-.93-.73-1.49-.73-.54 0-1 .22-1.36.65a2.3 2.3 0 00-.5 1.81c.05.75.28 1.35.68 1.81zm2.77 3.55h-1.9c-1.62 0-2.42-.51-2.42-1.53 0-.6.35-1.03 1.04-1.28a2.93 2.93 0 01-1.19-2.45c0-1.03.3-1.82.92-2.39a3.01 3.01 0 013.56-.48c.08-.47.28-.86.6-1.16.33-.31.66-.47 1-.47.36 0 .62.08.8.23.2.14.3.34.3.57 0 .23-.1.4-.31.55-.24-.19-.5-.28-.77-.28-.28 0-.51.1-.7.28-.18.18-.3.4-.37.68a3 3 0 011.02 2.37 3.02 3.02 0 01-3.02 3.17c-.4 0-.76-.07-1.1-.2-.55.1-.82.34-.82.73 0 .48.53.72 1.58.72h1.75c.78 0 1.37.16 1.79.5.43.32.64.78.64 1.35 0 .74-.39 1.36-1.15 1.88-.76.5-1.66.76-2.7.76a4.61 4.61 0 01-2.55-.64c-.65-.42-.98-.94-1-1.53 0-.59.26-.95.77-1.07.07 1.52 1.07 2.28 3.01 2.28.86 0 1.52-.15 2-.46.5-.3.74-.69.74-1.17 0-.64-.5-.96-1.52-.96zM102.74 156.61c.24.17.35.47.35.88 0 .4-.2.76-.59 1.07-.4.31-.99.47-1.79.48.32.53.48 1.19.48 1.99 0 1.03-.39 1.91-1.17 2.64a4.22 4.22 0 01-2.99 1.07 4.4 4.4 0 01-2.96-.96 3.1 3.1 0 01-1.1-2.45c0-1.25.6-2.23 1.79-2.96a2.09 2.09 0 01-1-.85c-.23-.4-.35-.86-.35-1.39 0-.9.3-1.63.9-2.19.6-.56 1.33-.83 2.18-.83.63 0 1.12.13 1.47.38.36.26.54.61.54 1.06 0 .22-.09.38-.27.46a.75.75 0 01-.34.08c-.11 0-.23-.01-.35-.05-.04-.45-.18-.78-.41-.97-.24-.2-.6-.3-1.06-.3-.47 0-.86.2-1.18.59-.32.38-.48.86-.48 1.44 0 1.37.76 2.06 2.28 2.06.06.07.08.16.08.26 0 .08-.07.18-.2.3a.75.75 0 01-.53.18c-.23 0-.43-.01-.63-.04-.41.27-.75.64-1 1.12-.26.48-.39.98-.39 1.5 0 .86.27 1.52.82 2 .55.45 1.3.68 2.24.68a3.8 3.8 0 002.4-.77c.66-.52.99-1.19.99-2 0-1.37-.55-2.06-1.65-2.06a.95.95 0 01-.05-.3c0-.25.32-.37.95-.37.92 0 1.52-.15 1.8-.44.2-.2.3-.47.3-.81 0-.14-.02-.29-.05-.45.2-.1.4-.16.56-.16.16 0 .3.04.41.11zM116.72 156.18c0 1.24-.62 2.08-1.86 2.53.8.21 1.43.56 1.89 1.04.47.47.7 1.07.7 1.82 0 .98-.4 1.76-1.23 2.32-.81.57-1.92.85-3.34.85-1.41 0-2.4-.17-3-.5a1.62 1.62 0 01-.86-1.47l.03-8.51c0-.3-.06-.53-.19-.67.95-.33 2.12-.5 3.5-.5 1.4 0 2.46.29 3.22.87.76.56 1.14 1.3 1.14 2.22zm-4 2.26c.92 0 1.63-.2 2.12-.6.5-.4.74-.94.74-1.63 0-.7-.27-1.26-.8-1.66-.53-.4-1.26-.61-2.2-.61-.92 0-1.75.1-2.47.27l-.03 4.23h2.64zm0 5.5c1.16 0 2.05-.2 2.67-.62.62-.42.93-1 .93-1.72 0-.73-.32-1.3-.95-1.72a4.71 4.71 0 00-2.69-.64h-2.6l-.02 3.47c0 .82.89 1.23 2.66 1.23zM120.3 162.61c0 .82.46 1.23 1.37 1.23.92 0 1.68-.4 2.3-1.21v-2a6.17 6.17 0 00-2.78.64c-.6.36-.9.8-.9 1.34zm4.69-3.7v4.42c0 .56.25.84.75.87-.14.36-.38.54-.72.54-.7 0-1.06-.45-1.06-1.36a2.9 2.9 0 01-2.53 1.36c-.64 0-1.17-.18-1.6-.54a1.87 1.87 0 01-.62-1.5c0-.78.39-1.42 1.17-1.9.78-.48 1.97-.74 3.58-.8v-.81c0-.75-.13-1.3-.38-1.63-.26-.36-.67-.53-1.25-.53s-1 .11-1.28.33c-.28.23-.42.48-.42.76 0 .26.07.47.21.6-.18.12-.37.18-.57.18a.78.78 0 01-.53-.2c-.14-.12-.21-.3-.21-.54 0-.48.27-.89.8-1.23.53-.34 1.2-.51 2.02-.51.8 0 1.45.23 1.92.69.48.45.72 1.05.72 1.8zM129.08 153.44v10.36c0 .23.12.4.36.48-.17.3-.4.46-.67.46-.47 0-.7-.3-.7-.91V153.5c0-.24-.13-.4-.37-.51.13-.3.35-.45.66-.45.48 0 .72.3.72.9zM132.61 162.61c0 .82.46 1.23 1.38 1.23.91 0 1.68-.4 2.28-1.21v-2a6.17 6.17 0 00-2.76.64c-.6.36-.9.8-.9 1.34zm4.69-3.7v4.42c0 .56.25.84.75.87-.14.36-.38.54-.72.54-.7 0-1.06-.45-1.06-1.36a2.9 2.9 0 01-2.52 1.36c-.64 0-1.18-.18-1.6-.54a1.87 1.87 0 01-.63-1.5c0-.78.4-1.42 1.17-1.9.78-.48 1.97-.74 3.58-.8v-.81c0-.75-.12-1.3-.38-1.63-.26-.36-.67-.53-1.25-.53-.57 0-1 .11-1.28.33-.28.23-.41.48-.41.76 0 .26.06.47.2.6-.18.12-.37.18-.57.18a.78.78 0 01-.53-.2c-.14-.12-.2-.3-.2-.54 0-.48.26-.89.8-1.23.53-.34 1.2-.51 2-.51.82 0 1.46.23 1.93.69.48.45.72 1.05.72 1.8zM146.7 159.14v4.66c0 .24.13.4.38.48-.17.3-.4.46-.68.46-.47 0-.7-.3-.7-.91v-4.67c0-1.2-.54-1.81-1.6-1.81-.57 0-1.12.23-1.64.7a3.64 3.64 0 00-1.07 1.81v3.94c0 .23.12.4.37.48-.17.3-.4.46-.68.46-.47 0-.7-.3-.7-.91v-6.45c0-.25-.12-.41-.37-.5.15-.3.37-.46.66-.46.48 0 .72.3.72.91v1.1c.28-.57.67-1.05 1.18-1.43a2.93 2.93 0 011.81-.58c.7 0 1.25.23 1.68.69.43.45.64 1.12.64 2.03zM155.04 157.97c0 .23-.09.4-.26.53a.85.85 0 01-.54.2.97.97 0 01-.52-.14c.07-.1.1-.26.1-.48 0-.2-.13-.41-.4-.6-.27-.2-.67-.3-1.22-.3-.54 0-.97.11-1.3.36-.3.24-.46.51-.46.83 0 .31.16.59.48.83.32.25.71.47 1.17.68.46.2.92.42 1.38.65.46.23.85.5 1.17.85.32.34.48.72.48 1.14 0 .58-.29 1.1-.85 1.55a3.4 3.4 0 01-2.18.67 4 4 0 01-2.14-.51c-.55-.34-.82-.8-.82-1.35 0-.32.08-.56.24-.73a.78.78 0 01.56-.26c.2 0 .37.07.5.2-.14.22-.21.44-.21.67 0 .37.16.67.46.9.31.22.77.33 1.36.33.61 0 1.1-.13 1.46-.39.36-.26.54-.58.54-.96s-.16-.7-.48-.96c-.3-.26-.69-.5-1.15-.68l-1.36-.58c-.45-.2-.83-.46-1.15-.77-.3-.3-.46-.66-.46-1.07 0-.63.26-1.15.78-1.55.52-.4 1.17-.61 1.94-.61.78 0 1.45.14 2.01.43.58.28.87.65.87 1.12z" fill="#333"/><path d="M10.64 114.21H6.75v11.13h3.89c1.9 0 3.35-.5 4.36-1.52a5.53 5.53 0 001.5-4.03c0-1.68-.5-3.02-1.5-4.03-1.01-1.03-2.46-1.55-4.36-1.55zm-5.65-2.63h6.08c2.83 0 5.15.74 6.95 2.2 1.8 1.44 2.7 3.43 2.7 5.98 0 2.54-.9 4.54-2.7 6-1.8 1.45-4.12 2.17-6.95 2.17H6.75v7.02c0 .86.34 1.44 1.01 1.73a2.82 2.82 0 01-2.34 1.26c-1.63 0-2.45-1.01-2.45-3.03v-20.2c0-.86-.32-1.43-.97-1.72.67-.94 1.67-1.4 2.99-1.4zM28.9 121.88v.72c.95-2.52 2.6-3.78 4.92-3.78 1.16 0 2.06.3 2.7.9.65.6.98 1.34.98 2.23 0 .87-.23 1.54-.69 2.02-.43.45-1 .68-1.73.68l-.9-.1c.08-.37.11-.75.11-1.16 0-.43-.17-.8-.5-1.11-.31-.34-.8-.5-1.44-.5-.65 0-1.32.35-2.02 1.07-.67.7-1.15 1.8-1.44 3.31v8.79c0 .86.34 1.44 1.01 1.73a2.79 2.79 0 01-2.3 1.26c-1.64 0-2.45-1.01-2.45-3.03v-13.07c0-.84-.34-1.42-1-1.76a2.79 2.79 0 012.3-1.26c1.63 0 2.44 1.02 2.44 3.06zM49.5 126.27c.93-.07 1.4-.61 1.4-1.62 0-1-.27-1.83-.83-2.48-.52-.67-1.28-1.01-2.26-1.01-.99 0-1.89.5-2.7 1.48a7.9 7.9 0 00-1.48 4.17l5.87-.54zm-5.98 2.45c.03 2.18.52 3.8 1.48 4.86.98 1.03 2.36 1.55 4.14 1.55 1.8 0 3.37-.67 4.71-2.02.41.22.62.59.62 1.12 0 .89-.62 1.73-1.84 2.52a7.78 7.78 0 01-4.32 1.19c-2.6 0-4.68-.77-6.26-2.3-1.59-1.57-2.38-3.78-2.38-6.63 0-2.86.86-5.27 2.6-7.24a7.94 7.94 0 016.15-2.95c1.87 0 3.4.64 4.57 1.9a6.07 6.07 0 011.76 4.3c0 1.17-.3 2.03-.93 2.58-.6.56-1.6.84-3.03.87l-7.27.25zM60.3 120.66v-4.76c0-1.9.52-3.34 1.58-4.35a5.43 5.43 0 013.89-1.55c1.51 0 2.67.3 3.5.9.83.6 1.25 1.27 1.25 2.02 0 .72-.25 1.15-.76 1.3a4.06 4.06 0 00-3.1-1.56c-1.72 0-2.58 1.06-2.58 3.17v4.83h5.29c.14.19.21.42.21.68 0 .53-.38 1-1.15 1.4-.77.39-2.04.58-3.81.58h-.54v18.47c0 1.65-.36 2.89-1.08 3.7-.7.85-1.6 1.27-2.7 1.27-1.54 0-2.6-.76-3.2-2.27 1.2 0 2.02-.27 2.48-.8.48-.52.72-1.41.72-2.66v-17.75c-2.12-.12-3.17-.63-3.17-1.54 0-.48.2-.9.57-1.23.77.1 1.56.15 2.38.15h.22zM83.13 122.96a4.64 4.64 0 00-3.78-1.9c-1.49 0-2.63.54-3.42 1.65-.8 1.1-1.19 2.69-1.19 4.75 0 2.95.52 5.08 1.55 6.37a4.7 4.7 0 003.78 1.91c1.49 0 2.61-.56 3.38-1.7.8-1.12 1.2-2.7 1.2-4.74-.01-2.98-.51-5.1-1.52-6.34zm-12.2 5.44c0-3.05.83-5.4 2.51-7.06a8.46 8.46 0 016.23-2.52c2.5 0 4.59.84 6.27 2.52 1.68 1.68 2.52 4.03 2.52 7.06 0 3.02-.84 5.37-2.52 7.05a8.52 8.52 0 01-6.23 2.49 8.65 8.65 0 01-6.27-2.49c-1.68-1.68-2.52-4.03-2.52-7.05zM97.13 121.88v.72c.96-2.52 2.6-3.78 4.93-3.78 1.16 0 2.05.3 2.7.9.65.6.97 1.34.97 2.23 0 .87-.22 1.54-.68 2.02-.43.45-1 .68-1.73.68l-.9-.1c.08-.37.11-.75.11-1.16 0-.43-.17-.8-.5-1.11-.31-.34-.8-.5-1.44-.5-.65 0-1.32.35-2.02 1.07-.67.7-1.15 1.8-1.44 3.31v8.79c0 .86.34 1.44 1 1.73a2.79 2.79 0 01-2.3 1.26c-1.63 0-2.44-1.01-2.44-3.03v-13.07c0-.84-.34-1.42-1.01-1.76a2.79 2.79 0 012.3-1.26c1.64 0 2.45 1.02 2.45 3.06zM136.89 125.12v9.83c0 .86.32 1.44.97 1.73a2.58 2.58 0 01-2.27 1.26c-1.65 0-2.48-1.01-2.48-3.03v-9.43c0-2.33-1-3.5-3.03-3.5-1.08 0-2.1.46-3.1 1.38a7.41 7.41 0 00-2 3.7v7.89c0 .86.33 1.44 1 1.73a2.79 2.79 0 01-2.3 1.26c-1.64 0-2.45-1.01-2.45-3.03v-9.43c0-2.33-1.02-3.5-3.06-3.5-1.08 0-2.11.46-3.1 1.38a7.41 7.41 0 00-2.01 3.7v7.89c0 .86.33 1.44 1 1.73a2.79 2.79 0 01-2.3 1.26c-1.63 0-2.45-1.01-2.45-3.03v-13.07c0-.84-.33-1.42-1-1.76a2.79 2.79 0 012.3-1.26c1.63 0 2.45 1.02 2.45 3.06v1.19a7.6 7.6 0 012.66-3.1 6.73 6.73 0 013.82-1.15c1.41 0 2.58.38 3.49 1.15.94.77 1.53 1.9 1.8 3.39a7.3 7.3 0 016.8-4.54c1.56 0 2.82.54 3.78 1.62.99 1.06 1.48 2.62 1.48 4.68zM145.83 132.93c0 1.54.84 2.3 2.52 2.3a5 5 0 004.14-2.12v-4.07c-2.28.12-3.96.54-5.04 1.26-1.08.7-1.62 1.58-1.62 2.63zm10.44-8.1v9.15c0 1.34.6 2.13 1.8 2.37a2.98 2.98 0 01-2.77 1.59c-1.6 0-2.53-.9-2.77-2.7a6.7 6.7 0 01-5.58 2.7c-1.54 0-2.78-.41-3.74-1.23a4.2 4.2 0 01-1.45-3.38c0-1.78.92-3.2 2.74-4.29 1.82-1.1 4.49-1.7 8-1.8v-2.52c0-1.3-.25-2.24-.73-2.84-.45-.62-1.17-.94-2.16-.94-.96 0-1.69.22-2.2.65-.5.41-.75.91-.75 1.51 0 .58.17 1.05.5 1.4-.6.54-1.3.8-2.08.8-.8 0-1.42-.2-1.88-.58-.43-.4-.64-.96-.64-1.65 0-1.2.7-2.21 2.09-3.03a9.8 9.8 0 015.03-1.22c2 0 3.6.52 4.8 1.55 1.2 1.03 1.8 2.52 1.8 4.46z" fill="#4E4361"/></svg>