<svg viewBox="0 0 48 48" fill="none" xmlns="http://www.w3.org/2000/svg"><mask id="a" mask-type="alpha" maskUnits="userSpaceOnUse" x="0" y="0" width="48" height="48"><rect width="48" height="48" rx="24" fill="#C4C4C4"/></mask><g mask="url(#a)"><path fill="#EDEBF0" d="M-8.5-2h65v51h-65z"/><path d="M2.34 39.84C.49 38.2-2 38.24-4.03 36.67c-.43-.26-1.05-.86-1.47-1.16v2.7c.11.41 2.74 2.95 2.74 3 .12.14 1.02 1.23 1.9 2.36.89 1.12 1.5 2.09 3.1 4.1 1.4.82 2.46.81 3.86.33l10.44-3.12c.82 1.57 1.43 2.88 2.97 4.12h7.6c-.05-1.5-.54-3.88-2-6.11-.83-1.4-3.15-3.9-3.03-4.68.04-.29.1-.42.28-.6 1.72-1.4 3.16-3.04 3.71-4.44.9-3.4.66-4.96-1.34-6.75-.12-.37-.14-.6-.04-1.04 1.57-.34 1.98-1.07 1.83-3-.7-.37-1.32-.55-1.97-1.56 1.26-1 2.79-1.46 6.14-2.22.83-1.56 1.21-4.18 1.92-8.43.1-1.34.03-1.5.57-2.03.18-.18.38-.5 1.78-.78C36.64 7.03 36.9 5.58 37 5.5c-.68-.08-.5.92-2.16 1.14-.84.16-1.14.18-1.22.18-.08 0-.18-.12.14-.34.52-.44.39-.9.16-.64-.14 0-1.56 1.32-1.72 1.38-.6.52-.73.44-.99 1.28-.3 1.38-.9 2.34-1.72 4.1-1.33 2.16-1.7 2.83-1.84 3.22a16.58 16.58 0 00-2.96-.7c-1.84.02-2.8.28-3.04.27-1.88-.04-.58.2-4.3.23-.11.01-.38-.05-.43-.3.05-.4-.38-1.17-.38-1.5 1.7-1 1.86-1.2 1.9-1.5.07-.65-.22-1.79-.32-2.21-.25-.31-.64-.75-1.02-1.74-.61-.54-.56-.64-1.42-1.52a2.98 2.98 0 00-2.2-.52c-.95.2-1.48.5-2.38 1.36-1.13 1.52-1.75 2.66-1.13 4.9.66 1.59 1.62 1.74 2.65 1.83.23.2.32.32.4.54.15.75-.13 1.46-.85 1.77-.87.15-1.37.25-2.79.65-.28.14-1.09 1.51-1.43 1.5a23.09 23.09 0 00-3.4 0c-.13-.76-1.36-2.2-2.92-4.8a52.88 52.88 0 01-2.03-3.7c-.2-.54-.38-.82-.52-.94a.97.97 0 00-.58-.24c-.76-.18-1.25-.84-1.42-.84-.72 0 .86 1.2.28 1.08-2-.34-1.72-.04-2.66-.62-.56-.12.2.64.56.84.9.5 1.3.46 2 .72.4.2.84.1 1.16.56 1.34 3.35 1.73 5.3 2.76 7.93.85 1.8 1.32 2.53 2.13 3.14 2.12.86 3.69 1.1 7.8.7 1.33.39 2.27.98 4.23 2.44.44.79.73 1.12 1.29 1.86 0 2.46-.26 3.34-.9 3.88-2.8.09-3.7.68-4.63 2.3-.62 1.62-.65 2.7-.5 4.75L7 40.44l-3.19 2.77s-.24-.94-.47-1.52c-.31-.76-.41-1.33-1-1.85z" fill="#4E4361"/></g></svg>