<svg viewBox="0 0 272 96" fill="none" xmlns="http://www.w3.org/2000/svg"><mask id="a" mask-type="alpha" maskUnits="userSpaceOnUse" x="0" y="0" width="96" height="96"><rect width="96" height="96" rx="48" fill="#C4C4C4"/></mask><g mask="url(#a)"><path fill="#EDEBF0" d="M-17-4h130V98H-17z"/><path d="M4.68 79.68C.98 76.4-3.98 76.5-8.05 73.33c-.87-.51-2.1-1.71-2.95-2.31v5.4c.22.82 5.49 5.9 5.49 6.02.22.27 2.04 2.44 3.8 4.7 1.77 2.25 2.98 4.17 6.2 8.21C7.27 97 9.4 96.97 12.2 96l20.88-6.23c1.65 3.14 2.88 5.75 5.94 8.24h15.21a25.1 25.1 0 00-3.98-12.22c-1.68-2.81-6.31-7.82-6.07-9.35.06-.59.2-.84.54-1.22 3.45-2.78 6.33-6.06 7.43-8.86 1.78-6.83 1.33-9.93-2.67-13.51a3.33 3.33 0 01-.1-2.08c3.14-.68 3.97-2.13 3.68-6.01-1.4-.73-2.65-1.08-3.94-3.12 2.51-1.98 5.56-2.9 12.27-4.43 1.66-3.11 2.43-8.36 3.85-16.85.2-2.69.06-3 1.12-4.07.36-.36.76-1 3.57-1.56 3.36-.67 3.88-3.55 4.08-3.71-1.36-.16-.98 1.84-4.32 2.28-1.69.32-2.29.36-2.45.36-.16 0-.36-.24.28-.68 1.04-.88.78-1.82.32-1.28-.26-.01-3.12 2.64-3.44 2.76-1.2 1.03-1.44.87-1.96 2.55-.63 2.75-1.8 4.69-3.45 8.18-2.66 4.35-3.4 5.68-3.67 6.47-2.9-.9-4.1-1.15-5.93-1.4-3.68.03-5.62.55-6.07.54-3.76-.1-1.17.38-8.6.45-.23.03-.78-.1-.87-.59.1-.81-.77-2.35-.77-3.03 3.41-1.97 3.72-2.38 3.8-2.98.14-1.3-.43-3.58-.63-4.43-.5-.62-1.27-1.5-2.03-3.48-1.24-1.08-1.14-1.26-2.86-3.02a5.95 5.95 0 00-4.4-1.04c-1.88.39-2.94.98-4.75 2.7-2.26 3.05-3.5 5.34-2.26 9.81 1.32 3.17 3.25 3.48 5.3 3.66.45.41.63.64.81 1.09.3 1.5-.27 2.92-1.72 3.52-1.73.32-2.73.51-5.57 1.31-.56.27-2.18 3.02-2.85 2.99a46.2 46.2 0 00-6.8 0c-.28-1.5-2.72-4.4-5.86-9.6-1.56-2.7-3.84-6.76-4.04-7.4a4.75 4.75 0 00-1.04-1.87A1.94 1.94 0 00-3 18.4c-1.52-.36-2.51-1.68-2.85-1.68-1.44 0 1.73 2.4.57 2.16-4-.68-3.44-.08-5.33-1.24-1.12-.24.4 1.28 1.12 1.68 1.81 1 2.6.92 4 1.44.81.39 1.68.19 2.33 1.12C-.48 28.58.3 32.47 2.37 37.75c1.7 3.6 2.63 5.04 4.25 6.28 4.24 1.7 7.37 2.19 15.58 1.4 2.68.77 4.56 1.95 8.47 4.88.88 1.56 1.47 2.22 2.58 3.7 0 4.92-.52 6.7-1.8 7.77-5.57.18-7.39 1.36-9.25 4.61-1.24 3.22-1.3 5.38-1 9.5l-7.2 5-6.38 5.52s-.48-1.88-.95-3.03c-.62-1.52-.81-2.66-2-3.7z" fill="#4E4361"/></g><path d="M117.83 71.35h4.21l-1.97-6.03-2.24 6.03zm6.67 3.5a.64.64 0 01-.56.28.87.87 0 01-.57-.18 1.61 1.61 0 01-.34-.65l-.72-2.13h-4.8l-.75 1.92c-.15.36-.3.63-.43.8a.67.67 0 01-.53.24c-.21 0-.38-.16-.51-.47.21-.08.38-.29.51-.62l3.89-9.76c-.1-.26-.22-.45-.35-.6.22-.13.42-.2.6-.2.31 0 .55.26.72.77l3.36 9.95c.11.33.27.55.48.66zM131.23 68.26c.09-.2.13-.41.13-.64 0-.22-.07-.4-.21-.54.2-.18.39-.27.56-.27.18 0 .33.06.45.19s.17.3.17.5c0 .19-.05.42-.16.68l-2.44 6.05c-.14.33-.28.57-.4.7-.13.13-.31.2-.55.2a.74.74 0 01-.54-.21 2.15 2.15 0 01-.39-.69l-2.2-6.27c-.13-.3-.34-.45-.61-.45h-.05a.62.62 0 01.2-.51c.13-.13.3-.2.5-.2.43 0 .75.32.96.95l2.18 6.61 2.4-6.1zM139.52 68.36c0 .22-.09.4-.26.53a.85.85 0 01-.54.19.96.96 0 01-.51-.13c.06-.1.1-.26.1-.48 0-.21-.14-.41-.4-.6-.27-.2-.68-.31-1.22-.31-.55 0-.98.12-1.3.37-.3.23-.46.51-.46.83 0 .3.16.59.48.83.32.25.7.47 1.17.67.45.2.91.43 1.37.66.46.22.85.5 1.17.85.32.34.48.72.48 1.13 0 .6-.28 1.1-.85 1.56a3.4 3.4 0 01-2.17.67c-.89 0-1.6-.17-2.15-.51-.54-.35-.81-.8-.81-1.35 0-.32.08-.56.24-.73a.78.78 0 01.56-.26c.2 0 .36.06.5.2-.15.22-.22.44-.22.66 0 .38.16.68.47.9.3.22.76.34 1.36.34.6 0 1.1-.13 1.45-.39.37-.26.55-.58.55-.96s-.16-.7-.48-.96c-.31-.26-.7-.5-1.15-.69l-1.36-.57c-.45-.2-.84-.46-1.16-.77-.3-.3-.46-.67-.46-1.07 0-.63.26-1.15.78-1.55.53-.4 1.17-.61 1.94-.61.78 0 1.45.14 2.02.43.57.28.86.65.86 1.12zM145.38 74.15c.71 0 1.31-.28 1.79-.85.49-.57.74-1.35.74-2.33 0-1-.25-1.78-.74-2.35a2.24 2.24 0 00-1.8-.87c-.98 0-1.73.46-2.23 1.38v3.79c.29.46.6.78.96.96.35.18.78.27 1.28.27zm-2.24-6.43v.24a2.7 2.7 0 012.29-1.15c.96 0 1.79.36 2.5 1.09.7.72 1.05 1.75 1.05 3.07 0 1.31-.36 2.33-1.07 3.05a3.36 3.36 0 01-2.5 1.1 2.8 2.8 0 01-2.27-1.03v3.84c0 .24.12.4.37.5-.17.3-.4.46-.68.46-.47 0-.7-.31-.7-.93v-10.2c0-.24-.12-.4-.37-.49.15-.3.37-.46.66-.46.48 0 .72.3.72.91zM155.57 64.7c0 .19-.08.37-.25.56a.78.78 0 01-.56.25.63.63 0 01-.47-.17.65.65 0 01-.17-.48c0-.2.08-.4.25-.56a.82.82 0 01.56-.26c.2 0 .36.06.47.18.11.11.17.27.17.48zm-2.2 0c0 .19-.09.37-.26.56a.78.78 0 01-.56.25.63.63 0 01-.46-.17.65.65 0 01-.18-.48c0-.2.09-.4.26-.56a.82.82 0 01.56-.26c.2 0 .35.06.46.18.12.11.18.27.18.48zm-1.6 8.3c0 .82.45 1.23 1.37 1.23.92 0 1.68-.4 2.29-1.21v-2a6.17 6.17 0 00-2.77.64c-.6.36-.9.8-.9 1.34zm4.68-3.7v4.42c0 .55.26.84.76.86-.14.37-.38.55-.72.55-.7 0-1.06-.46-1.06-1.36a2.9 2.9 0 01-2.53 1.36c-.64 0-1.17-.18-1.6-.55a1.87 1.87 0 01-.62-1.48c0-.8.39-1.43 1.17-1.9.78-.49 1.97-.75 3.58-.8v-.82c0-.75-.13-1.3-.38-1.64-.26-.35-.68-.52-1.25-.52-.58 0-1 .1-1.28.33s-.42.48-.42.75.07.47.21.61c-.18.12-.37.18-.58.18a.78.78 0 01-.52-.2c-.14-.12-.21-.3-.21-.54 0-.48.26-.89.8-1.23.53-.34 1.2-.51 2.01-.51.81 0 1.45.23 1.92.69.48.44.72 1.05.72 1.8zM165.86 69.53v4.65c0 .25.12.4.38.48-.17.31-.4.47-.69.47-.47 0-.7-.3-.7-.91v-4.68c0-1.2-.53-1.8-1.59-1.8-.57 0-1.12.23-1.64.7a3.64 3.64 0 00-1.08 1.8v3.94c0 .24.13.4.37.48-.17.31-.4.47-.67.47-.47 0-.7-.3-.7-.91v-6.45c0-.25-.13-.41-.37-.5.15-.3.37-.46.65-.46.48 0 .72.3.72.91v1.1c.28-.57.68-1.05 1.19-1.44a2.93 2.93 0 011.8-.57c.7 0 1.26.23 1.69.69.42.44.64 1.12.64 2.03zM175.18 69.53v4.65c0 .25.13.4.39.48-.17.31-.4.47-.69.47-.47 0-.7-.3-.7-.91v-4.68c0-1.2-.53-1.8-1.59-1.8-.57 0-1.12.23-1.65.7a3.64 3.64 0 00-1.07 1.8v3.94c0 .24.13.4.37.48-.17.31-.4.47-.67.47-.47 0-.7-.3-.7-.91v-6.45c0-.25-.13-.41-.37-.5.15-.3.36-.46.65-.46.48 0 .72.3.72.91v1.1c.28-.57.67-1.05 1.19-1.44a2.93 2.93 0 011.8-.57c.7 0 1.26.23 1.68.69.43.44.64 1.12.64 2.03zM178.72 63.54c.24 0 .43.07.58.21.15.13.22.31.22.55 0 .23-.1.44-.3.62a.93.93 0 01-.66.27.9.9 0 01-.6-.2.78.78 0 01-.23-.58c0-.25.1-.45.32-.61.21-.17.44-.26.67-.26zm.48 4.18v6.46c0 .24.12.4.37.48-.17.31-.4.47-.67.47-.47 0-.7-.3-.7-.91v-6.45c0-.25-.13-.41-.38-.5.15-.3.37-.46.66-.46.48 0 .72.3.72.91zM188.57 69.53v4.65c0 .25.13.4.39.48-.17.31-.4.47-.69.47-.47 0-.7-.3-.7-.91v-4.68c0-1.2-.53-1.8-1.59-1.8-.57 0-1.12.23-1.64.7a3.64 3.64 0 00-1.08 1.8v3.94c0 .24.13.4.37.48-.17.31-.4.47-.67.47-.47 0-.7-.3-.7-.91v-6.45c0-.25-.13-.41-.37-.5.15-.3.37-.46.65-.46.48 0 .72.3.72.91v1.1c.28-.57.68-1.05 1.19-1.44a2.93 2.93 0 011.8-.57c.7 0 1.26.23 1.69.69.42.44.63 1.12.63 2.03zM192.9 71.77c.41.46.9.69 1.44.69.54 0 1-.22 1.35-.66.37-.45.55-.99.55-1.62 0-.82-.23-1.47-.67-1.95-.44-.49-.94-.73-1.5-.73-.53 0-.99.21-1.35.65a2.3 2.3 0 00-.51 1.81c.05.75.28 1.35.69 1.8zm2.76 3.55h-1.9c-1.61 0-2.42-.51-2.42-1.54 0-.6.35-1.02 1.04-1.28a2.93 2.93 0 01-1.18-2.44c0-1.03.3-1.82.91-2.39a3.02 3.02 0 013.57-.48c.07-.47.27-.86.6-1.17.32-.3.66-.46 1-.46.35 0 .62.07.8.22.2.15.29.35.29.58 0 .22-.1.4-.3.54-.24-.18-.5-.27-.78-.27-.27 0-.5.1-.7.27-.18.19-.3.41-.37.7a3 3 0 011.03 2.36 3.02 3.02 0 01-3.03 3.17c-.4 0-.76-.07-1.1-.21-.55.1-.82.35-.82.74 0 .48.53.72 1.59.72h1.74c.78 0 1.38.16 1.8.5.42.32.63.78.63 1.35 0 .74-.38 1.36-1.15 1.87-.76.52-1.66.77-2.7.77a4.61 4.61 0 01-2.55-.64c-.65-.42-.98-.94-.99-1.53 0-.6.26-.95.77-1.08.06 1.53 1.07 2.3 3 2.3.86 0 1.53-.16 2-.47.5-.3.74-.69.74-1.17 0-.64-.5-.96-1.52-.96zM214.23 67c.23.17.35.46.35.88 0 .4-.2.76-.6 1.07-.39.31-.99.47-1.79.48.32.52.48 1.19.48 1.99 0 1.03-.38 1.91-1.16 2.64a4.22 4.22 0 01-3 1.07 4.4 4.4 0 01-2.96-.96 3.1 3.1 0 01-1.1-2.45c0-1.25.6-2.23 1.8-2.96a2.09 2.09 0 01-1-.85c-.24-.4-.35-.86-.35-1.39 0-.9.3-1.64.9-2.2.6-.55 1.33-.82 2.17-.82.63 0 1.12.12 1.47.38.37.26.55.6.55 1.06 0 .22-.1.37-.28.46a.74.74 0 01-.33.08c-.12 0-.24-.02-.35-.05-.05-.46-.19-.78-.42-.97-.24-.2-.59-.3-1.06-.3-.47 0-.86.19-1.18.58-.32.39-.48.87-.48 1.44 0 1.38.76 2.07 2.29 2.07.05.07.08.16.08.25s-.07.2-.21.3a.75.75 0 01-.53.18c-.22 0-.43 0-.62-.03a3.15 3.15 0 00-1.4 2.62c0 .86.28 1.52.82 1.99.56.46 1.3.69 2.24.69a3.8 3.8 0 002.4-.77c.66-.52 1-1.19 1-2 0-1.38-.56-2.06-1.65-2.06a.95.95 0 01-.05-.3c0-.25.31-.38.94-.38.92 0 1.52-.14 1.81-.43.2-.2.29-.47.29-.81 0-.14-.02-.3-.05-.45.21-.1.4-.16.56-.16.16 0 .3.04.42.11zM228.2 66.57c0 1.24-.62 2.08-1.86 2.53.8.2 1.43.56 1.9 1.04.46.47.7 1.07.7 1.82 0 .98-.41 1.75-1.24 2.32-.8.57-1.92.85-3.34.85-1.4 0-2.4-.17-3-.5a1.62 1.62 0 01-.86-1.47l.04-8.51c0-.31-.07-.54-.2-.67.95-.33 2.12-.5 3.5-.5 1.4 0 2.47.29 3.22.86.76.57 1.14 1.31 1.14 2.23zm-4 2.25c.93 0 1.64-.2 2.13-.59.49-.4.73-.94.73-1.63 0-.7-.26-1.26-.8-1.66-.53-.4-1.26-.61-2.19-.61-.93 0-1.75.09-2.48.27l-.03 4.22h2.64zm0 5.5c1.16 0 2.05-.2 2.67-.62.62-.41.93-.98.93-1.7 0-.74-.31-1.32-.94-1.74a4.72 4.72 0 00-2.7-.64h-2.6l-.02 3.48c0 .82.89 1.23 2.66 1.23zM231.78 73c0 .82.46 1.23 1.38 1.23.91 0 1.68-.4 2.29-1.21v-2a6.17 6.17 0 00-2.77.64c-.6.36-.9.8-.9 1.34zm4.69-3.7v4.42c0 .55.25.84.75.86-.14.37-.38.55-.72.55-.7 0-1.05-.46-1.05-1.36a2.9 2.9 0 01-2.53 1.36c-.64 0-1.18-.18-1.6-.55a1.87 1.87 0 01-.63-1.48c0-.8.4-1.43 1.17-1.9.78-.49 1.97-.75 3.59-.8v-.82c0-.75-.13-1.3-.39-1.64-.25-.35-.67-.52-1.25-.52-.57 0-1 .1-1.28.33-.27.23-.41.48-.41.75s.07.47.2.61c-.18.12-.37.18-.57.18a.78.78 0 01-.53-.2c-.14-.12-.2-.3-.2-.54 0-.48.26-.89.8-1.23.53-.34 1.2-.51 2.01-.51.81 0 1.45.23 1.92.69.48.44.72 1.05.72 1.8zM240.56 63.83v10.35c0 .24.12.4.37.48-.17.31-.4.47-.67.47-.47 0-.7-.3-.7-.91V63.9c0-.24-.13-.4-.38-.52.13-.3.35-.44.66-.44.48 0 .72.3.72.9zM244.1 73c0 .82.45 1.23 1.37 1.23.92 0 1.68-.4 2.29-1.21v-2a6.17 6.17 0 00-2.77.64c-.6.36-.9.8-.9 1.34zm4.68-3.7v4.42c0 .55.25.84.75.86-.13.37-.38.55-.72.55-.7 0-1.05-.46-1.05-1.36a2.9 2.9 0 01-2.53 1.36c-.64 0-1.17-.18-1.6-.55a1.87 1.87 0 01-.62-1.48c0-.8.39-1.43 1.16-1.9.78-.49 1.98-.75 3.59-.8v-.82c0-.75-.13-1.3-.39-1.64-.25-.35-.67-.52-1.24-.52-.58 0-1 .1-1.28.33s-.42.48-.42.75.07.47.2.61c-.17.12-.37.18-.57.18a.78.78 0 01-.53-.2c-.13-.12-.2-.3-.2-.54 0-.48.26-.89.8-1.23.53-.34 1.2-.51 2.01-.51.81 0 1.45.23 1.92.69.48.44.72 1.05.72 1.8zM258.18 69.53v4.65c0 .25.13.4.39.48-.17.31-.4.47-.69.47-.47 0-.7-.3-.7-.91v-4.68c0-1.2-.53-1.8-1.59-1.8-.57 0-1.12.23-1.65.7a3.64 3.64 0 00-1.07 1.8v3.94c0 .24.13.4.37.48-.17.31-.4.47-.67.47-.47 0-.7-.3-.7-.91v-6.45c0-.25-.13-.41-.37-.5.15-.3.36-.46.65-.46.48 0 .72.3.72.91v1.1c.28-.57.67-1.05 1.19-1.44a2.93 2.93 0 011.8-.57c.7 0 1.26.23 1.68.69.43.44.64 1.12.64 2.03zM266.52 68.36c0 .22-.08.4-.26.53a.85.85 0 01-.54.19.96.96 0 01-.51-.13c.06-.1.1-.26.1-.48 0-.21-.14-.41-.4-.6-.27-.2-.68-.31-1.22-.31-.55 0-.98.12-1.3.37-.3.23-.46.51-.46.83 0 .3.16.59.48.83.32.25.7.47 1.17.67.46.2.91.43 1.37.66.46.22.85.5 1.17.85.32.34.48.72.48 1.13 0 .6-.28 1.1-.85 1.56a3.4 3.4 0 01-2.17.67c-.89 0-1.6-.17-2.15-.51-.54-.35-.81-.8-.81-1.35 0-.32.08-.56.24-.73a.78.78 0 01.56-.26c.2 0 .36.06.5.2-.15.22-.22.44-.22.66 0 .38.16.68.47.9.3.22.76.34 1.36.34.6 0 1.1-.13 1.45-.39.37-.26.55-.58.55-.96s-.16-.7-.48-.96c-.31-.26-.7-.5-1.15-.69l-1.36-.57c-.45-.2-.84-.46-1.16-.77-.3-.3-.46-.67-.46-1.07 0-.63.26-1.15.78-1.55.53-.4 1.17-.61 1.94-.61.78 0 1.45.14 2.02.43.57.28.86.65.86 1.12z" fill="#333"/><path d="M123.12 24.6h-3.88v11.12h3.88c1.9 0 3.35-.5 4.36-1.5a5.53 5.53 0 001.51-4.04c0-1.68-.5-3.02-1.51-4.03-1-1.03-2.46-1.55-4.36-1.55zm-5.65-2.63h6.09c2.83 0 5.14.73 6.94 2.2 1.8 1.44 2.7 3.43 2.7 5.97 0 2.55-.9 4.55-2.7 6.02-1.8 1.44-4.11 2.16-6.94 2.16h-4.32v7.02c0 .86.33 1.44 1 1.72a2.82 2.82 0 01-2.34 1.26c-1.63 0-2.44-1-2.44-3.02V25.1c0-.86-.33-1.44-.98-1.72.68-.94 1.67-1.4 3-1.4zM141.38 32.27v.72c.96-2.52 2.6-3.78 4.93-3.78 1.15 0 2.05.3 2.7.9.65.6.97 1.34.97 2.23 0 .86-.23 1.54-.68 2.02-.44.45-1.01.68-1.73.68l-.9-.1c.07-.37.1-.75.1-1.16 0-.43-.16-.8-.5-1.12-.3-.33-.79-.5-1.44-.5-.65 0-1.32.36-2.01 1.08-.67.7-1.16 1.8-1.44 3.31v8.79c0 .86.33 1.44 1 1.72a2.79 2.79 0 01-2.3 1.26c-1.63 0-2.45-1-2.45-3.02V32.23c0-.84-.33-1.43-1-1.76a2.79 2.79 0 012.3-1.26c1.63 0 2.45 1.02 2.45 3.06zM161.98 36.66c.94-.07 1.4-.61 1.4-1.62 0-1-.27-1.84-.82-2.48-.53-.68-1.28-1.01-2.27-1.01-.98 0-1.88.49-2.7 1.47a7.9 7.9 0 00-1.47 4.18l5.86-.54zm-5.97 2.45c.02 2.18.51 3.8 1.47 4.86.99 1.03 2.37 1.55 4.14 1.55 1.8 0 3.38-.68 4.72-2.02.4.22.61.59.61 1.12 0 .88-.61 1.72-1.83 2.52a7.78 7.78 0 01-4.33 1.18c-2.59 0-4.67-.76-6.26-2.3-1.58-1.56-2.38-3.77-2.38-6.62 0-2.86.87-5.27 2.6-7.24a7.94 7.94 0 016.15-2.95c1.88 0 3.4.63 4.57 1.9a6.07 6.07 0 011.77 4.29c0 1.18-.31 2.04-.94 2.6-.6.54-1.6.83-3.02.86l-7.27.25zM172.78 31.04V26.3c0-1.9.53-3.35 1.59-4.35a5.43 5.43 0 013.88-1.55c1.51 0 2.68.3 3.5.9.84.6 1.25 1.27 1.25 2.01 0 .72-.25 1.16-.75 1.3a4.06 4.06 0 00-3.1-1.55c-1.72 0-2.59 1.06-2.59 3.17v4.82h5.3c.14.2.2.42.2.69 0 .53-.38 1-1.14 1.4-.77.39-2.04.58-3.82.58h-.54v18.47c0 1.65-.36 2.89-1.08 3.7-.7.84-1.6 1.26-2.7 1.26-1.53 0-2.6-.75-3.2-2.26 1.2 0 2.02-.27 2.48-.8.48-.52.72-1.41.72-2.66V33.67c-2.11-.12-3.17-.63-3.17-1.55 0-.48.2-.88.58-1.22.77.1 1.56.14 2.38.14h.21zM195.61 33.35a4.64 4.64 0 00-3.78-1.91c-1.49 0-2.63.55-3.42 1.66-.79 1.1-1.19 2.68-1.19 4.75 0 2.95.52 5.07 1.55 6.37a4.7 4.7 0 003.78 1.9c1.5 0 2.62-.56 3.39-1.68.79-1.13 1.19-2.72 1.19-4.76 0-2.97-.5-5.08-1.52-6.33zm-12.2 5.43c0-3.04.84-5.4 2.52-7.05a8.46 8.46 0 016.23-2.52c2.5 0 4.58.84 6.26 2.52 1.68 1.68 2.52 4.03 2.52 7.05 0 3.03-.84 5.38-2.52 7.06a8.52 8.52 0 01-6.23 2.48 8.65 8.65 0 01-6.26-2.48c-1.68-1.68-2.52-4.03-2.52-7.06zM209.62 32.27v.72c.95-2.52 2.6-3.78 4.93-3.78 1.15 0 2.05.3 2.7.9.65.6.97 1.34.97 2.23 0 .86-.23 1.54-.69 2.02-.43.45-1 .68-1.72.68l-.9-.1c.07-.37.1-.75.1-1.16 0-.43-.16-.8-.5-1.12-.31-.33-.8-.5-1.44-.5-.65 0-1.32.36-2.01 1.08-.68.7-1.16 1.8-1.44 3.31v8.79c0 .86.33 1.44 1 1.72a2.79 2.79 0 01-2.3 1.26c-1.63 0-2.45-1-2.45-3.02V32.23c0-.84-.34-1.43-1-1.76a2.79 2.79 0 012.3-1.26c1.63 0 2.45 1.02 2.45 3.06zM249.37 35.5v9.84c0 .86.33 1.44.97 1.72a2.58 2.58 0 01-2.26 1.26c-1.66 0-2.49-1-2.49-3.02v-9.43c0-2.33-1-3.5-3.02-3.5-1.08 0-2.11.46-3.1 1.37a7.41 7.41 0 00-2.01 3.71v7.89c0 .86.33 1.44 1 1.72a2.79 2.79 0 01-2.3 1.26c-1.63 0-2.45-1-2.45-3.02v-9.43c0-2.33-1.02-3.5-3.06-3.5-1.08 0-2.1.46-3.1 1.37a7.41 7.41 0 00-2 3.71v7.89c0 .86.33 1.44 1 1.72a2.79 2.79 0 01-2.3 1.26c-1.64 0-2.45-1-2.45-3.02V32.23c0-.84-.34-1.43-1.01-1.76a2.79 2.79 0 012.3-1.26c1.63 0 2.45 1.02 2.45 3.06v1.19a7.6 7.6 0 012.67-3.1 6.73 6.73 0 013.81-1.15c1.42 0 2.58.38 3.5 1.15.93.77 1.53 1.9 1.8 3.38a7.3 7.3 0 016.8-4.53c1.56 0 2.82.54 3.78 1.62.98 1.05 1.47 2.61 1.47 4.68zM258.32 43.32c0 1.54.84 2.3 2.52 2.3a5 5 0 004.14-2.12v-4.07c-2.28.12-3.96.54-5.04 1.26-1.08.7-1.62 1.57-1.62 2.63zm10.44-8.1v9.14c0 1.35.6 2.14 1.8 2.38a2.98 2.98 0 01-2.77 1.58c-1.61 0-2.54-.9-2.78-2.7a6.7 6.7 0 01-5.58 2.7c-1.53 0-2.78-.4-3.74-1.22a4.2 4.2 0 01-1.44-3.38c0-1.78.91-3.2 2.74-4.29 1.82-1.1 4.48-1.7 7.99-1.8v-2.52c0-1.3-.24-2.24-.72-2.84-.46-.63-1.18-.94-2.16-.94-.96 0-1.7.22-2.2.65-.5.4-.75.91-.75 1.51 0 .58.16 1.05.5 1.4-.6.53-1.3.8-2.09.8-.8 0-1.42-.2-1.87-.58-.43-.4-.65-.96-.65-1.65 0-1.2.7-2.21 2.09-3.03a9.8 9.8 0 015.04-1.22c2 0 3.59.51 4.79 1.55 1.2 1.03 1.8 2.52 1.8 4.46z" fill="#4E4361"/></svg>