<svg viewBox="0 0 16 16" fill="none" xmlns="http://www.w3.org/2000/svg"><mask id="a" mask-type="alpha" maskUnits="userSpaceOnUse" x="1" y="1" width="14" height="14"><rect x="1" y="1" width="14" height="14" rx="7" fill="#C4C4C4"/></mask><g mask="url(#a)"><path fill="#fff" d="M-1.48.42h18.96V15.3H-1.48z"/><path d="M1.68 12.62c-.54-.48-1.26-.46-1.85-.93-.13-.07-.31-.25-.43-.33v.78c.03.12.8.86.8.88.03.04.3.36.55.69.26.33.43.6.9 1.2.41.23.72.23 1.13.09l3.04-.91c.24.46.42.84.87 1.2H8.9a3.66 3.66 0 00-.58-1.78c-.25-.41-.92-1.14-.89-1.36a.27.27 0 01.08-.18c.5-.4.92-.89 1.08-1.3.26-.99.2-1.44-.39-1.96a.49.49 0 010-.3c.45-.1.57-.32.53-.88-.2-.11-.39-.16-.58-.46.37-.29.81-.42 1.8-.64.23-.46.35-1.22.55-2.46.03-.4.01-.44.17-.6.05-.05.1-.14.52-.22.49-.1.56-.52.6-.54-.2-.03-.15.26-.64.33l-.36.05c-.02 0-.05-.03.05-.1.15-.13.11-.26.04-.19-.04 0-.45.39-.5.4-.17.16-.21.13-.29.38-.09.4-.26.68-.5 1.2-.39.63-.5.82-.53.93-.43-.12-.6-.16-.87-.2-.54 0-.82.08-.88.08-.55-.01-.17.06-1.26.07-.03 0-.11-.02-.12-.09 0-.12-.12-.34-.12-.44.5-.29.55-.35.56-.44.02-.19-.07-.52-.1-.64-.07-.1-.18-.22-.3-.51-.17-.16-.16-.18-.4-.44a.87.87 0 00-.65-.15c-.27.05-.43.14-.7.4-.32.44-.5.77-.32 1.42.19.46.47.51.77.54.07.06.1.09.12.15.04.22-.04.43-.25.52-.25.04-.4.07-.81.19-.09.04-.32.44-.42.43-.4-.02-.6-.02-1 0-.03-.21-.39-.64-.85-1.4a15.42 15.42 0 01-.74-1.35.28.28 0 00-.17-.07C.34 3.63.2 3.44.15 3.44c-.21 0 .25.35.08.31-.58-.1-.5 0-.78-.18-.16-.03.06.19.17.25.26.14.38.13.58.2.12.06.25.03.34.17.39.98.5 1.55.8 2.31.25.53.39.74.63.92.61.25 1.07.32 2.27.2.39.12.66.29 1.23.72.13.22.22.32.38.54 0 .71-.08.97-.26 1.13-.82.03-1.08.2-1.35.67-.18.47-.2.79-.15 1.39l-1.05.73-.93.8s-.07-.27-.14-.44c-.09-.22-.12-.39-.29-.54z" fill="#000"/></g></svg>